<svg xmlns="http://www.w3.org/2000/svg" style="display: none;">
  <defs>
    <!-- Holographic Tech Icons -->
    <symbol id="icon-hologram" viewBox="0 0 24 24">
      <path fill="currentColor" d="M12 2L2 7v10l10 5 10-5V7L12 2zm0 2.18l7.09 3.55L12 11.27 4.91 7.73L12 4.18zM5 9.18l6 3v8.64l-6-3V9.18zm8 11.64v-8.64l6-3v8.64l-6 3z"/>
      <circle cx="12" cy="7" r="1" fill="currentColor" opacity="0.6"/>
      <circle cx="12" cy="12" r="1.5" fill="currentColor" opacity="0.8"/>
      <circle cx="12" cy="17" r="1" fill="currentColor" opacity="0.6"/>
    </symbol>
    
    <!-- Futuristic CPU -->
    <symbol id="icon-cpu" viewBox="0 0 24 24">
      <rect x="3" y="3" width="18" height="18" rx="2" fill="none" stroke="currentColor" stroke-width="1.5"/>
      <rect x="7" y="7" width="10" height="10" rx="1" fill="none" stroke="currentColor" stroke-width="1"/>
      <rect x="9" y="9" width="6" height="6" rx="0.5" fill="currentColor" opacity="0.3"/>
      <line x1="3" y1="8" x2="1" y2="8" stroke="currentColor" stroke-width="1"/>
      <line x1="3" y1="12" x2="1" y2="12" stroke="currentColor" stroke-width="1"/>
      <line x1="3" y1="16" x2="1" y2="16" stroke="currentColor" stroke-width="1"/>
      <line x1="21" y1="8" x2="23" y2="8" stroke="currentColor" stroke-width="1"/>
      <line x1="21" y1="12" x2="23" y2="12" stroke="currentColor" stroke-width="1"/>
      <line x1="21" y1="16" x2="23" y2="16" stroke="currentColor" stroke-width="1"/>
      <line x1="8" y1="3" x2="8" y2="1" stroke="currentColor" stroke-width="1"/>
      <line x1="12" y1="3" x2="12" y2="1" stroke="currentColor" stroke-width="1"/>
      <line x1="16" y1="3" x2="16" y2="1" stroke="currentColor" stroke-width="1"/>
      <line x1="8" y1="21" x2="8" y2="23" stroke="currentColor" stroke-width="1"/>
      <line x1="12" y1="21" x2="12" y2="23" stroke="currentColor" stroke-width="1"/>
      <line x1="16" y1="21" x2="16" y2="23" stroke="currentColor" stroke-width="1"/>
    </symbol>
    
    <!-- Quantum Circuit -->
    <symbol id="icon-quantum" viewBox="0 0 24 24">
      <circle cx="6" cy="6" r="2" fill="none" stroke="currentColor" stroke-width="1.5"/>
      <circle cx="18" cy="6" r="2" fill="none" stroke="currentColor" stroke-width="1.5"/>
      <circle cx="6" cy="18" r="2" fill="none" stroke="currentColor" stroke-width="1.5"/>
      <circle cx="18" cy="18" r="2" fill="none" stroke="currentColor" stroke-width="1.5"/>
      <circle cx="12" cy="12" r="3" fill="currentColor" opacity="0.3"/>
      <path d="M8 6h8M6 8v8M16 8v8M8 18h8" stroke="currentColor" stroke-width="1"/>
      <path d="M9 9l6 6M15 9l-6 6" stroke="currentColor" stroke-width="0.5" opacity="0.6"/>
    </symbol>
    
    <!-- Blockchain Link -->
    <symbol id="icon-blockchain" viewBox="0 0 24 24">
      <rect x="2" y="4" width="6" height="6" rx="1" fill="none" stroke="currentColor" stroke-width="1.5"/>
      <rect x="9" y="9" width="6" height="6" rx="1" fill="none" stroke="currentColor" stroke-width="1.5"/>
      <rect x="16" y="4" width="6" height="6" rx="1" fill="none" stroke="currentColor" stroke-width="1.5"/>
      <path d="M8 7h1M14 12h2" stroke="currentColor" stroke-width="2"/>
      <circle cx="5" cy="7" r="1" fill="currentColor"/>
      <circle cx="12" cy="12" r="1" fill="currentColor"/>
      <circle cx="19" cy="7" r="1" fill="currentColor"/>
      <path d="M5 10v2h7v-2M12 15v2h7v-2" stroke="currentColor" stroke-width="1" opacity="0.6"/>
    </symbol>
    
    <!-- Neural Network -->
    <symbol id="icon-neural" viewBox="0 0 24 24">
      <circle cx="4" cy="6" r="1.5" fill="currentColor"/>
      <circle cx="4" cy="12" r="1.5" fill="currentColor"/>
      <circle cx="4" cy="18" r="1.5" fill="currentColor"/>
      <circle cx="12" cy="4" r="1.5" fill="currentColor"/>
      <circle cx="12" cy="12" r="2" fill="currentColor"/>
      <circle cx="12" cy="20" r="1.5" fill="currentColor"/>
      <circle cx="20" cy="8" r="1.5" fill="currentColor"/>
      <circle cx="20" cy="16" r="1.5" fill="currentColor"/>
      <path d="M5.5 6L10.5 4M5.5 12L10 12M5.5 18L10.5 20M13.5 4L18.5 8M13.5 20L18.5 16M14 12L18.5 8M14 12L18.5 16" 
            stroke="currentColor" stroke-width="0.5" opacity="0.6"/>
    </symbol>
    
    <!-- Cloud Computing -->
    <symbol id="icon-cloud-tech" viewBox="0 0 24 24">
      <path d="M6.5 17C4.57 17 3 15.43 3 13.5S4.57 10 6.5 10c.17 0 .33.01.5.03C8.08 7.69 10.26 6 12.84 6c3.25 0 5.91 2.5 6.12 5.68C20.08 12.07 21 13.4 21 15c0 1.66-1.34 3-3 3H6.5z" 
            fill="none" stroke="currentColor" stroke-width="1.5"/>
      <circle cx="9" cy="13" r="1" fill="currentColor" opacity="0.6"/>
      <circle cx="15" cy="13" r="1" fill="currentColor" opacity="0.6"/>
      <circle cx="12" cy="15" r="1" fill="currentColor" opacity="0.8"/>
      <path d="M9 13l3 2l3-2" stroke="currentColor" stroke-width="0.5" opacity="0.4"/>
    </symbol>
    
    <!-- Cybersecurity Shield -->
    <symbol id="icon-security" viewBox="0 0 24 24">
      <path d="M12 1L3 5v6c0 5.55 3.84 10.74 9 12 5.16-1.26 9-6.45 9-12V5l-9-4z" 
            fill="none" stroke="currentColor" stroke-width="1.5"/>
      <path d="M9 12l2 2 4-4" stroke="currentColor" stroke-width="2" fill="none"/>
      <circle cx="12" cy="8" r="1" fill="currentColor" opacity="0.6"/>
      <path d="M12 9v3" stroke="currentColor" stroke-width="1"/>
      <path d="M8 16l8-8M16 16l-8-8" stroke="currentColor" stroke-width="0.3" opacity="0.3"/>
    </symbol>
    
    <!-- Data Analytics -->
    <symbol id="icon-analytics" viewBox="0 0 24 24">
      <rect x="3" y="3" width="18" height="18" rx="2" fill="none" stroke="currentColor" stroke-width="1.5"/>
      <path d="M7 14l3-3 2 2 5-5" stroke="currentColor" stroke-width="2" fill="none"/>
      <circle cx="7" cy="14" r="1" fill="currentColor"/>
      <circle cx="10" cy="11" r="1" fill="currentColor"/>
      <circle cx="12" cy="13" r="1" fill="currentColor"/>
      <circle cx="17" cy="8" r="1" fill="currentColor"/>
      <rect x="6" y="17" width="1" height="2" fill="currentColor" opacity="0.6"/>
      <rect x="9" y="16" width="1" height="3" fill="currentColor" opacity="0.6"/>
      <rect x="12" y="15" width="1" height="4" fill="currentColor" opacity="0.6"/>
      <rect x="15" y="14" width="1" height="5" fill="currentColor" opacity="0.6"/>
      <rect x="18" y="13" width="1" height="6" fill="currentColor" opacity="0.6"/>
    </symbol>
    
    <!-- Mobile Development -->
    <symbol id="icon-mobile-dev" viewBox="0 0 24 24">
      <rect x="6" y="2" width="12" height="20" rx="2" fill="none" stroke="currentColor" stroke-width="1.5"/>
      <rect x="8" y="5" width="8" height="12" rx="1" fill="none" stroke="currentColor" stroke-width="1"/>
      <circle cx="12" cy="19" r="1" fill="currentColor"/>
      <path d="M10 7h4M10 9h4M10 11h2" stroke="currentColor" stroke-width="1" opacity="0.6"/>
      <circle cx="14" cy="11" r="0.5" fill="currentColor" opacity="0.8"/>
      <path d="M9 13l2 2 4-4" stroke="currentColor" stroke-width="1"/>
    </symbol>
    
    <!-- Quantum Atom -->
    <symbol id="icon-atom" viewBox="0 0 24 24">
      <circle cx="12" cy="12" r="1.5" fill="currentColor"/>
      <ellipse cx="12" cy="12" rx="8" ry="3" fill="none" stroke="currentColor" stroke-width="1"/>
      <ellipse cx="12" cy="12" rx="8" ry="3" fill="none" stroke="currentColor" stroke-width="1" 
               transform="rotate(60 12 12)"/>
      <ellipse cx="12" cy="12" rx="8" ry="3" fill="none" stroke="currentColor" stroke-width="1" 
               transform="rotate(-60 12 12)"/>
      <circle cx="4" cy="12" r="1" fill="currentColor" opacity="0.6"/>
      <circle cx="20" cy="12" r="1" fill="currentColor" opacity="0.6"/>
      <circle cx="12" cy="4" r="1" fill="currentColor" opacity="0.6"/>
      <circle cx="12" cy="20" r="1" fill="currentColor" opacity="0.6"/>
    </symbol>
    
    <!-- Lightning Code -->
    <symbol id="icon-lightning-code" viewBox="0 0 24 24">
      <path d="M13 2L8.5 12H12l-1 8 4.5-10H12l1-8z" fill="currentColor"/>
      <path d="M6 8l-2 2 2 2M18 8l2 2-2 2" stroke="currentColor" stroke-width="1.5" 
            fill="none" opacity="0.6"/>
      <circle cx="4" cy="10" r="0.5" fill="currentColor" opacity="0.8"/>
      <circle cx="20" cy="10" r="0.5" fill="currentColor" opacity="0.8"/>
    </symbol>
    
    <!-- Holographic Display -->
    <symbol id="icon-holo-display" viewBox="0 0 24 24">
      <rect x="2" y="6" width="20" height="12" rx="2" fill="none" stroke="currentColor" stroke-width="1.5"/>
      <rect x="4" y="8" width="16" height="8" rx="1" fill="none" stroke="currentColor" stroke-width="1"/>
      <path d="M6 20h12" stroke="currentColor" stroke-width="2"/>
      <path d="M10 18v2M14 18v2" stroke="currentColor" stroke-width="1"/>
      <path d="M6 10l2 2-2 2M18 10l-2 2 2 2M9 12h6" stroke="currentColor" stroke-width="1" opacity="0.6"/>
      <circle cx="12" cy="12" r="1" fill="currentColor" opacity="0.8"/>
    </symbol>
    
    <!-- Matrix Grid -->
    <symbol id="icon-matrix" viewBox="0 0 24 24">
      <rect x="1" y="1" width="22" height="22" fill="none" stroke="currentColor" stroke-width="0.5" opacity="0.3"/>
      <line x1="6" y1="1" x2="6" y2="23" stroke="currentColor" stroke-width="0.5" opacity="0.3"/>
      <line x1="12" y1="1" x2="12" y2="23" stroke="currentColor" stroke-width="0.5" opacity="0.3"/>
      <line x1="18" y1="1" x2="18" y2="23" stroke="currentColor" stroke-width="0.5" opacity="0.3"/>
      <line x1="1" y1="6" x2="23" y2="6" stroke="currentColor" stroke-width="0.5" opacity="0.3"/>
      <line x1="1" y1="12" x2="23" y2="12" stroke="currentColor" stroke-width="0.5" opacity="0.3"/>
      <line x1="1" y1="18" x2="23" y2="18" stroke="currentColor" stroke-width="0.5" opacity="0.3"/>
      <circle cx="3" cy="3" r="0.5" fill="currentColor"/>
      <circle cx="9" cy="6" r="0.5" fill="currentColor" opacity="0.8"/>
      <circle cx="15" cy="9" r="0.5" fill="currentColor"/>
      <circle cx="21" cy="12" r="0.5" fill="currentColor" opacity="0.8"/>
      <circle cx="6" cy="15" r="0.5" fill="currentColor"/>
      <circle cx="12" cy="18" r="0.5" fill="currentColor" opacity="0.8"/>
      <circle cx="18" cy="21" r="0.5" fill="currentColor"/>
    </symbol>
    
    <!-- Futuristic Eye -->
    <symbol id="icon-future-eye" viewBox="0 0 24 24">
      <path d="M12 4.5C7 4.5 2.73 7.61 1 12c1.73 4.39 6 7.5 11 7.5s9.27-3.11 11-7.5c-1.73-4.39-6-7.5-11-7.5z" 
            fill="none" stroke="currentColor" stroke-width="1.5"/>
      <circle cx="12" cy="12" r="3" fill="none" stroke="currentColor" stroke-width="1.5"/>
      <circle cx="12" cy="12" r="1" fill="currentColor"/>
      <path d="M12 9v6M9 12h6" stroke="currentColor" stroke-width="0.5" opacity="0.4"/>
      <circle cx="10" cy="10" r="0.5" fill="currentColor" opacity="0.6"/>
      <circle cx="14" cy="14" r="0.5" fill="currentColor" opacity="0.6"/>
    </symbol>
    
    <!-- Particle Effect -->
    <symbol id="icon-particles" viewBox="0 0 24 24">
      <circle cx="5" cy="5" r="1" fill="currentColor" opacity="0.8"/>
      <circle cx="12" cy="3" r="0.5" fill="currentColor" opacity="0.6"/>
      <circle cx="19" cy="6" r="1.5" fill="currentColor"/>
      <circle cx="3" cy="12" r="0.5" fill="currentColor" opacity="0.4"/>
      <circle cx="21" cy="12" r="1" fill="currentColor" opacity="0.7"/>
      <circle cx="7" cy="18" r="1" fill="currentColor" opacity="0.9"/>
      <circle cx="15" cy="20" r="0.5" fill="currentColor" opacity="0.5"/>
      <circle cx="18" cy="15" r="1" fill="currentColor" opacity="0.8"/>
      <circle cx="12" cy="12" r="2" fill="currentColor" opacity="0.3"/>
      <path d="M5 5L12 3M12 3L19 6M19 6L21 12M21 12L18 15M18 15L15 20M15 20L7 18M7 18L3 12M3 12L5 5" 
            stroke="currentColor" stroke-width="0.3" opacity="0.2"/>
    </symbol>
    
    <!-- Neon Grid -->
    <symbol id="icon-neon-grid" viewBox="0 0 24 24">
      <defs>
        <linearGradient id="neonGlow" x1="0%" y1="0%" x2="100%" y2="100%">
          <stop offset="0%" style="stop-color:#00FFFF;stop-opacity:1" />
          <stop offset="50%" style="stop-color:#9D4EDD;stop-opacity:0.8" />
          <stop offset="100%" style="stop-color:#FF6B35;stop-opacity:1" />
        </linearGradient>
      </defs>
      <rect x="2" y="2" width="20" height="20" fill="none" stroke="url(#neonGlow)" stroke-width="1"/>
      <rect x="6" y="6" width="12" height="12" fill="none" stroke="url(#neonGlow)" stroke-width="0.5" opacity="0.8"/>
      <rect x="10" y="10" width="4" height="4" fill="url(#neonGlow)" opacity="0.3"/>
      <circle cx="12" cy="12" r="1" fill="url(#neonGlow)"/>
    </symbol>
  </defs>
</svg>
